<svg height="484pt" viewBox="-17 0 484 484.25299" width="484pt" xmlns="http://www.w3.org/2000/svg"><path d="m328.507812 190.371094 1 .320312 69.101563-22.28125v-94.320312l-69.101563-22.28125-69.097656 22.28125v94.320312zm-.777343-182.371094c42.722656.039062 81.902343 23.761719 101.738281 61.601562 19.839844 37.835938 17.066406 83.554688-7.199219 118.714844-24.265625 35.164063-66.027343 53.976563-108.441406 48.855469l-40.269531 25.257813v-37.96875c-46.539063-24.855469-70.199219-78.1875-57.390625-129.371094 12.808593-51.183594 58.800781-87.085938 111.5625-87.089844zm0 0" fill="#00efd1"/><path d="m398.609375 74.089844v94.320312l-69.101563 22.28125-1-.320312v-94.121094l.0625-.171875.9375.300781zm0 0" fill="#fedb41"/><path d="m398.609375 74.089844-69.101563 22.289062-.9375-.300781-68.160156-21.988281 69.097656-22.28125zm0 0" fill="#fedb41"/><path d="m365.898438 366.5-50 110h-170l50-110zm0 0" fill="#00efd1"/><path d="m328.570312 96.078125-.0625.171875v94.121094l-68.097656-21.960938v-94.320312zm0 0" fill="#fedb41"/><path d="m92.488281 391.289062 19.101563-36.859374h11.859375l20.640625 36.871093 19.917968-70.179687h12.5625c26.101563.003906 48.113282 19.445312 51.339844 45.347656v.03125h-32.011718l-50 110h-137.339844v-98.449219c-1.472656-14.550781 3.28125-29.042969 13.089844-39.894531 9.804687-10.847656 23.746093-17.039062 38.371093-17.035156l14.167969-1.160156zm0 0" fill="#00acea"/><path d="m166.328125 229.628906v19.910156c0 27.492188-22.285156 49.78125-49.78125 49.78125-27.492187 0-49.777344-22.289062-49.777344-49.78125v-19.910156c0-27.492187 22.285157-49.777344 49.777344-49.777344 27.496094 0 49.78125 22.285157 49.78125 49.777344zm0 0" fill="#00efd1"/><path d="m133.417969 322.648438-9.960938 31.78125h-11.867187l-9.949219-31.78125zm0 0" fill="#00acea"/><g fill="#083863"><path d="m145.894531 484.25h170.003907c3.117187.050781 5.96875-1.738281 7.285156-4.5625l50-109.941406c1.125-2.507813.914062-5.410156-.558594-7.734375-1.460938-2.308594-3.992188-3.722657-6.726562-3.761719h-131.347657c-6.761719-26.496094-30.636719-45.027344-57.980469-45h-12.5625c-3.566406-.03125-6.714843 2.320312-7.699218 5.75l-14.65625 51.609375-9.535156-17.050781 8.929687-28.507813c.761719-2.496093.324219-5.203125-1.183594-7.332031-1.484375-2.105469-3.871093-3.386719-6.445312-3.46875h-31.777344c-2.574219.089844-4.957031 1.371094-6.449219 3.464844-1.496094 2.09375-1.933594 4.765625-1.1875 7.226562l8.964844 28.683594-7.9375 15.347656-13.09375-51.011718c-.972656-3.773438-4.519531-6.292969-8.398438-5.980469l-13.855468 1.136719c-16.777344.109374-32.738282 7.25-44 19.683593-11.210938 12.402344-17.175782 29.015625-15.175782 45.636719v98.0625c.023438 2.101562.886719 4.105469 2.402344 5.5625 1.511719 1.457031 3.546875 2.246094 5.648438 2.1875zm164.851563-16h-152.425782l42.730469-94h152.425781zm-188.21875-138-4.945313 16h-.117187l-4.9375-16zm-106.035156 46.992188c-1.238282-12.300782 2.785156-24.550782 11.078124-33.71875 8.292969-9.171876 20.074219-14.402344 32.4375-14.402344.21875 0 .4375-.011719.65625-.027344l7.445313-.609375 16.625 64.796875c.011719.039062.023437.074219.035156.109375.054688.195313.113281.386719.179688.578125.023437.0625.042969.125.070312.1875.070313.183594.144531.363281.230469.539062.027344.066407.0625.132813.09375.203126.082031.164062.171875.328124.265625.488281.042969.066406.082031.132812.125.199219.097656.152343.199219.300781.304687.441406.046876.066406.09375.128906.144532.191406.109375.144531.230468.285156.351562.421875.046875.050781.09375.105469.144532.15625.132812.140625.273437.277344.417968.410156l.121094.109375c.160156.140625.328125.273438.5.398438l.082031.0625c.1875.136718.382813.261718.578125.382812l.050782.027344c.207031.125.421874.234375.636718.339844l.039063.015625c.214843.101562.433593.191406.660156.273437l.058594.023438c.214843.074218.429687.140625.652343.199218l.113282.027344c.203125.050782.402344.089844.609375.125l.191406.027344c.1875.023438.375.042969.5625.054688.085937.007812.167969.011718.25.015624.082031 0 .1875.011719.28125.011719.0625 0 .125-.011719.191406-.011719.238281-.007812.480469-.023437.722657-.054687.171874-.019531.339843-.042969.507812-.074219.191406-.03125.378906-.066406.566406-.113281.035156-.011719.070313-.023437.101563-.03125.148437-.042969.292969-.089844.4375-.136719.183593-.0625.359375-.128906.535156-.203125.121094-.050781.242187-.097656.363281-.152343.277344-.132813.550782-.28125.8125-.441407.066406-.042969.128906-.089843.191406-.132812.214844-.144531.421876-.296875.617188-.457031.074219-.0625.152344-.125.222656-.1875.21875-.191407.429688-.394532.628906-.613282.023438-.023437.046876-.046875.070313-.074218.210937-.234376.402344-.484376.582031-.746094.0625-.085938.117188-.175782.171875-.261719.132813-.203125.253907-.410156.363281-.625.03125-.058594.070313-.199219.097657-.265625l16.785156-32.46875h2.304687l18.351563 32.867188c1.410156 2.539062 4.074219 4.117187 6.976563 4.136718 3.578124.09375 6.757812-2.265625 7.699218-5.714844l18.269532-64.289062h6.515624c18.519532-.050781 35.066407 11.566406 41.316407 29h-21.988281c-3.136719 0-5.984376 1.832031-7.285157 4.6875l-47.867187 105.3125h-124.238282v-90.199219c.007813-.269531.003907-.539062-.015624-.808593zm0 0"/><path d="m58.507812 229.628906v19.910156c0 31.859376 26.140626 57.78125 58 57.78125 31.859376 0 58-25.921874 58-57.78125v-19.910156c0-32.03125-25.964843-58-58-58-32.03125 0-58 25.96875-58 58zm100 0v19.910156c0 23.195313-18.804687 42-42 42-23.195312 0-42-18.804687-42-42v-19.910156c0-23.195312 18.804688-42 42-42 23.195313 0 42 18.804688 42 42zm0 0"/><path d="m327.730469 0c-67.824219 0-123.027344 55.179688-123.027344 123-.199219 43.71875 22.992187 84.207031 60.804687 106.148438v33.28125c.011719 2.917968 1.601563 5.597656 4.15625 7.007812 2.554688 1.40625 5.671876 1.316406 8.144532-.230469l37.921875-23.785156c3.964843.382813 7.992187.578125 12 .578125 67.929687 0 123-55.070312 123-123s-55.070313-123-123-123zm0 230c-4.328125 0-8.648438-.257812-12.945313-.773438-1.824218-.21875-3.671875.191407-5.234375 1.167969l-28.042969 17.574219v-23.507812c.011719-2.949219-1.605468-5.660157-4.199218-7.054688-47.691406-25.445312-68.929688-82.453125-49.511719-132.902344 19.421875-50.445312 73.40625-78.496094 125.847656-65.390625 52.445313 13.105469 86.886719 63.25 80.292969 116.902344-6.589844 53.652344-52.148438 93.96875-106.207031 93.988281zm0 0"/><path d="m331.964844 44.195312c-1.597656-.511718-3.316406-.511718-4.910156 0l-69.101563 22.28125c-3.296875 1.070313-5.519531 4.148438-5.5 7.613282h.054687v94.320312c-.019531 3.464844 2.203126 6.542969 5.5 7.613282l68.089844 21.964843.988282.320313c1.589843.511718 3.296874.511718 4.886718 0l69.046875-22.28125c3.292969-1.074219 5.515625-4.152344 5.488281-7.617188v-94.320312h.050782c.011718-3.46875-2.222656-6.542969-5.519532-7.613282zm-2.457032 16.019532 43.035157 13.878906-43.039063 13.882812-43.03125-13.882812zm-61 24.863281 52 16.808594v77.5l-52-16.800781zm68 94.949219v-77.5l54-17.449219v77.507813zm0 0"/></g></svg>